<?xml version="1.0" encoding="UTF-8" standalone="no"?>
<!-- Created with Inkscape (http://www.inkscape.org/) -->

<svg
   width="210mm"
   height="297mm"
   viewBox="0 0 210 297"
   version="1.1"
   id="svg1"
   inkscape:version="1.4.3 (0d15f75, 2025-12-25)"
   sodipodi:docname="Character_Cartoon.svg"
   xmlns:inkscape="http://www.inkscape.org/namespaces/inkscape"
   xmlns:sodipodi="http://sodipodi.sourceforge.net/DTD/sodipodi-0.dtd"
   xmlns="http://www.w3.org/2000/svg"
   xmlns:svg="http://www.w3.org/2000/svg">
  <sodipodi:namedview
     id="namedview1"
     pagecolor="#ffffff"
     bordercolor="#000000"
     borderopacity="0.25"
     inkscape:showpageshadow="2"
     inkscape:pageopacity="0.0"
     inkscape:pagecheckerboard="0"
     inkscape:deskcolor="#d1d1d1"
     inkscape:document-units="mm"
     showgrid="true"
     inkscape:zoom="0.67780272"
     inkscape:cx="132.782"
     inkscape:cy="377.69102"
     inkscape:window-width="1127"
     inkscape:window-height="762"
     inkscape:window-x="390"
     inkscape:window-y="0"
     inkscape:window-maximized="0"
     inkscape:current-layer="layer1">
    <inkscape:grid
       id="grid121"
       units="mm"
       originx="0"
       originy="0"
       spacingx="0.99999998"
       spacingy="1"
       empcolor="#0099e5"
       empopacity="0.30196078"
       color="#0099e5"
       opacity="0.14901961"
       empspacing="5"
       enabled="true"
       visible="false" />
  </sodipodi:namedview>
  <defs
     id="defs1" />
  <g
     inkscape:label="Layer 1"
     inkscape:groupmode="layer"
     id="layer1">
    <path
       style="fill:#ff7f2a;fill-opacity:1;fill-rule:evenodd;stroke:#000000;stroke-width:0.4;stroke-dasharray:none;stroke-opacity:1;paint-order:markers stroke fill"
       d="M 115,56.999998 C 122.17082,98.406059 75.815541,111.2796 65.092449,110.58262 63.337792,110.46857 72.996287,96.027202 72.996287,96.027202 67.864595,99.567666 62.334573,101.32426 56.406222,101.29699 67.572572,88.117166 76.57015,70.569085 80.080939,51.385226 Z"
       id="path117"
       sodipodi:nodetypes="cscccc" />
    <path
       style="fill:#ffccaa;fill-opacity:1;fill-rule:nonzero;stroke:#000000;stroke-width:0.4;stroke-dasharray:none;stroke-opacity:1;paint-order:markers stroke fill"
       d="m 80.000003,64.999992 6.9191,23.597405 C 106.94174,97.896137 118.02506,72.95028 115,57.000002 l -34.919057,-5.61478"
       id="path140"
       sodipodi:nodetypes="cccc" />
    <ellipse
       style="fill:none;fill-rule:evenodd;stroke:#000000;stroke-width:0;stroke-dasharray:none;stroke-opacity:1;paint-order:markers stroke fill"
       id="path89"
       cx="51.064125"
       cy="69.281601"
       rx="6.0724902"
       ry="5.5204458" />
    <ellipse
       style="fill:none;fill-rule:evenodd;stroke:#000000;stroke-width:0;stroke-dasharray:none;stroke-opacity:1;paint-order:markers stroke fill"
       id="path90"
       cx="41.815212"
       cy="77.735878"
       rx="13.660936"
       ry="12.247396" />
    <ellipse
       style="fill:none;fill-rule:evenodd;stroke:#000000;stroke-width:0;stroke-dasharray:none;stroke-opacity:1;paint-order:markers stroke fill"
       id="path92"
       cx="89.486526"
       cy="54.863533"
       rx="4.6370792"
       ry="5.5853519" />
    <ellipse
       style="fill:none;fill-rule:evenodd;stroke:#000000;stroke-width:0;stroke-dasharray:none;stroke-opacity:1;paint-order:markers stroke fill"
       id="path94"
       cx="154.71049"
       cy="95.917747"
       rx="20.287638"
       ry="28.844328" />
    <ellipse
       style="fill:#ffffff;fill-rule:evenodd;stroke:#000000;stroke-width:0.5;stroke-dasharray:none;stroke-opacity:1;paint-order:markers stroke fill;fill-opacity:1"
       id="ellipse96"
       cx="105.7188"
       cy="75.055931"
       rx="4.8303909"
       ry="5.3824339" />
    <ellipse
       style="fill:#ffffff;fill-rule:evenodd;stroke:#000000;stroke-width:0.5;stroke-dasharray:none;stroke-opacity:1;paint-order:markers stroke fill;fill-opacity:1"
       id="ellipse97"
       cx="92.950882"
       cy="74.088356"
       rx="4.8303909"
       ry="5.3824339" />
    <path
       style="fill:none;fill-rule:evenodd;stroke:#000000;stroke-width:0.4;stroke-dasharray:none;stroke-opacity:1;paint-order:markers stroke fill"
       id="path100"
       sodipodi:type="arc"
       sodipodi:cx="40.844807"
       sodipodi:cy="95.028214"
       sodipodi:rx="16.538322"
       sodipodi:ry="6.9003522e-07"
       sodipodi:start="1.5707963"
       sodipodi:end="4.7123895"
       sodipodi:arc-type="slice" />
    <path
       style="fill:#028dfe;fill-rule:evenodd;stroke:#000000;stroke-width:0.06310073;stroke-dasharray:none;stroke-opacity:1;paint-order:markers stroke fill;fill-opacity:1"
       id="path102"
       sodipodi:type="arc"
       sodipodi:cx="126.51137"
       sodipodi:cy="40.951283"
       sodipodi:rx="1.4747142"
       sodipodi:ry="2.181654"
       sodipodi:start="0"
       sodipodi:end="6.271927"
       sodipodi:open="true"
       sodipodi:arc-type="arc"
       d="m 127.98608,40.951283 a 1.4747142,2.181654 0 0 1 -1.47056,2.181645 1.4747142,2.181654 0 0 1 -1.47884,-2.169365 1.4747142,2.181654 0 0 1 1.46224,-2.193857 1.4747142,2.181654 0 0 1 1.48707,2.157015"
       transform="matrix(0.93834806,0.34569195,-0.57837635,0.81577006,0,0)" />
    <path
       style="fill:#008cfe;fill-rule:evenodd;stroke:#000000;stroke-width:0.06310073;stroke-dasharray:none;stroke-opacity:1;paint-order:markers stroke fill;fill-opacity:0.99148935"
       id="path105"
       sodipodi:type="arc"
       sodipodi:cx="137.61008"
       sodipodi:cy="27.4424"
       sodipodi:rx="1.4747142"
       sodipodi:ry="2.181654"
       sodipodi:start="0"
       sodipodi:end="6.271927"
       sodipodi:open="true"
       sodipodi:arc-type="arc"
       d="m 139.08479,27.4424 a 1.4747142,2.181654 0 0 1 -1.47056,2.181645 1.4747142,2.181654 0 0 1 -1.47884,-2.169364 1.4747142,2.181654 0 0 1 1.46223,-2.193857 1.4747142,2.181654 0 0 1 1.48708,2.157015"
       transform="matrix(0.90998108,0.41464977,-0.63755373,0.77040589,0,0)"
       inkscape:transform-center-x="0.034394404"
       inkscape:transform-center-y="0.0027435744" />
    <path
       style="fill:none;fill-rule:evenodd;stroke:#000000;stroke-width:0.4;stroke-dasharray:none;stroke-opacity:1;paint-order:markers stroke fill"
       d="m 98.818483,76.909091 c -0.11891,1.094063 -0.0945,1.859867 0.78244,2.634893 v 0.0244"
       id="path108"
       sodipodi:nodetypes="ccc" />
    <path
       style="fill:none;fill-rule:evenodd;stroke:#000000;stroke-width:0.435736;stroke-dasharray:none;stroke-opacity:1;paint-order:markers stroke fill"
       d="m 97.143043,81.416533 c 2.31336,-3.027987 4.345597,-2.291019 3.927457,-0.231406 v 0"
       id="path109"
       sodipodi:nodetypes="ccc" />
    <path
       style="fill:none;fill-rule:evenodd;stroke:#000000;stroke-width:0.4;stroke-dasharray:none;stroke-opacity:1;paint-order:markers stroke fill"
       d="m 102.17528,85.487631 c -6.228437,3.466056 -12.64559,2.228581 -13.662401,-5.172197 v 0"
       id="path110"
       sodipodi:nodetypes="ccc" />
    <path
       style="fill:#ffccaa;fill-opacity:1;fill-rule:evenodd;stroke:#000000;stroke-width:0.4;stroke-dasharray:none;stroke-opacity:1;paint-order:markers stroke fill"
       d="m 81.991764,72.336853 c 0,0 -1.648204,-2.271098 -2.991762,-1.866022 -1.789335,0.539476 -3.001802,4.305702 -2.002509,5.305094 1.541963,1.272811 4.211316,1.666962 6.347446,1.245691"
       id="path111"
       sodipodi:nodetypes="cscc" />
    <path
       style="fill:none;fill-rule:evenodd;stroke:#000000;stroke-width:0.4;stroke-dasharray:none;stroke-opacity:1;paint-order:markers stroke fill"
       d="M 79.088006,70.151077 Z"
       id="path112" />
    <path
       style="fill:none;fill-rule:evenodd;stroke:#000000;stroke-width:0.4;stroke-dasharray:none;stroke-opacity:1;paint-order:markers stroke fill"
       d="M 78.781489,71.478523 Z"
       id="path113" />
    <path
       style="fill:none;fill-rule:evenodd;stroke:#000000;stroke-width:0.4;stroke-dasharray:none;stroke-opacity:1;paint-order:markers stroke fill"
       d="m 79.483565,71.841377 c 1.197353,-0.160223 2.217674,0.881296 2.717097,1.621628"
       id="path114"
       sodipodi:nodetypes="cc" />
    <path
       style="fill:#ff7f2a;fill-rule:evenodd;stroke:#000000;stroke-width:0.4;stroke-dasharray:none;stroke-opacity:1;paint-order:markers stroke fill;fill-opacity:1"
       d="m 115,56.999998 c 2.92739,8.571633 4.16458,14.008149 -1.33319,21.441248 0,0 0.61854,-16.505929 0.21911,-16.765238 -0.25663,-0.166604 -3.70819,10.509799 -14.102037,11.177622 2.859037,-1.143068 7.058047,-14.221406 6.037137,-12.139748 C 97.339856,78.00709 72.38991,69.011485 72.508347,69.483098 79.7503,66.634073 83.864,61.760885 84.849447,54.863533"
       id="path116"
       sodipodi:nodetypes="ccscscc" />
    <path
       style="fill:#ff7f2a;fill-opacity:1;fill-rule:evenodd;stroke:#000000;stroke-width:0.6;stroke-dasharray:none;stroke-opacity:1;paint-order:markers stroke fill"
       d="m 102.82527,69.128786 -0.36096,-1.128788 c -0.12255,-0.383249 7.50689,-1.303974 7.41603,-1.339567 -0.0909,-0.0356 -0.0478,0.924571 -0.0478,0.924571 l -6.81489,1.520514 -0.1924,0.02328"
       id="path107"
       sodipodi:nodetypes="cssccc" />
    <path
       style="fill:#ff7f2a;fill-rule:evenodd;stroke:#000000;stroke-width:0.6;stroke-dasharray:none;stroke-opacity:1;paint-order:markers stroke fill;fill-opacity:1"
       d="m 89.776286,66.525104 7.565056,0.945727 -0.101471,0.979263 -8.088042,-0.942761 z"
       id="path106"
       sodipodi:nodetypes="ccccc" />
    <path
       style="fill:#ff7f2a;fill-rule:evenodd;stroke:#000000;stroke-width:0.4;stroke-dasharray:none;stroke-opacity:1;paint-order:markers stroke fill;fill-opacity:1"
       d="m 82.364797,42.45105 1.491773,9.450569 -3.775631,-0.516393 -0.822616,4.029527 c -1.445796,-5.582379 -4.1275,-4.958348 -4.1275,-4.958349 0.739212,-0.483828 3.657904,-2.32117 6.218769,-1.218128 0.11166,-3.373117 -0.299083,-5.533233 1.015205,-6.787226 z"
       id="path118"
       sodipodi:nodetypes="ccccccc" />
    <path
       style="fill:#ffccaa;fill-opacity:1;fill-rule:evenodd;stroke:#000000;stroke-width:0.4;stroke-dasharray:none;stroke-opacity:1;paint-order:markers stroke fill"
       d="m 77.000002,102 -1,2 c -1,1 3.849323,2.30135 4,2 l 4,-8.000003 c 0,0 -6.868531,3.949353 -7,4.000003 1,-2.000003 -1,2 -1,2 1,-2 3.024189,-5.715988 5,-8.000003 l 3,2"
       id="path120"
       sodipodi:nodetypes="ccsccccc" />
    <path
       style="fill:#ffccaa;fill-opacity:1;fill-rule:evenodd;stroke:#000000;stroke-width:0.4;stroke-dasharray:none;stroke-opacity:1;paint-order:markers stroke fill"
       d="m 93.13674,97.757286 2.042112,-1.152867 c 1.82115,2.395578 2.992562,6.783131 3.82115,8.395581 0,0.44796 -3.939391,1.36812 -4,1 -0.311241,-1.2962 -0.985069,-5.08498 -1.863262,-8.242714 z"
       id="path121"
       sodipodi:nodetypes="ccccc" />
    <path
       style="fill:#67b701;fill-opacity:1;fill-rule:evenodd;stroke:#000000;stroke-width:0.4;stroke-dasharray:none;stroke-opacity:1;paint-order:markers stroke fill"
       d="m 90.742332,97.435873 c 0.694985,1.468126 1.118778,3.246187 2.104668,4.381847 2.248929,0.19427 5.348014,-1.7364 6.106996,-3.139748 -0.208803,-0.608144 -3.953994,-4.677975 -7.327678,-6.351733 v 0 c -2.535924,-1.040038 -4.864334,-1.285468 -7.578274,-0.2263 -1.641998,0.842701 -2.751124,1.392879 -6.692793,5.100335 0.933751,1.838139 3.233528,4.931276 4.615001,4.481886 1.104388,-2.323184 1.765869,-3.787648 2.147546,-5.005348"
       id="path119"
       sodipodi:nodetypes="ccccccccc" />
    <path
       style="fill:#ffccaa;fill-opacity:1;fill-rule:evenodd;stroke:#000000;stroke-width:0.4;stroke-dasharray:none;stroke-opacity:1;paint-order:markers stroke fill"
       d="m 86.919103,88.597397 0.0809,2.954064 c 0.666667,0.598049 1.300708,0.586741 1.967375,-0.01131 l 0.591936,-1.894172"
       id="path115"
       sodipodi:nodetypes="cccc" />
    <path
       style="fill:#67b701;fill-opacity:1;fill-rule:evenodd;stroke:#000000;stroke-width:0.4;stroke-dasharray:none;stroke-opacity:1;paint-order:markers stroke fill"
       d="M 84.000002,95.999997 72.000001,123.99999 C 80.000002,126 89.333336,126.33334 98.000002,125 l 1,-1.00001 -5.863262,-26.242704"
       id="path122"
       sodipodi:nodetypes="ccccc" />
    <path
       style="fill:#ffccaa;fill-rule:evenodd;stroke:#000000;stroke-width:0.4;stroke-dasharray:none;stroke-opacity:1;paint-order:markers stroke fill"
       d="m 78.000002,129 2,59.99999 -6,1 0.852154,-60.89013 z"
       id="path124"
       sodipodi:nodetypes="ccccc" />
    <path
       style="fill:#ffccaa;fill-rule:evenodd;stroke:#000000;stroke-width:0.4;stroke-dasharray:none;stroke-opacity:1;paint-order:markers stroke fill"
       d="m 93.182582,188.03716 5.81742,0.96283 L 94.749526,129.10587 91.000002,129 Z"
       id="path125"
       sodipodi:nodetypes="ccccc" />
    <path
       style="fill:#32a7ea;fill-rule:evenodd;stroke:#000000;stroke-width:0.4;stroke-dasharray:none;stroke-opacity:1;paint-order:markers stroke fill;fill-opacity:1"
       d="m 74.000002,123 h 22.291631 v 0 l 3.000002,24.14695 c -3.937608,0.45876 -9.60419,0.4961 -11.291633,-0.14695 l -1,-7 -2,-11 -2,11 -0.855317,7.92766 c 0,0 -5.85305,1.41446 -12.853051,-0.58554 1,-2 2.708368,-16.34212 4.708368,-24.34212 z"
       id="path123"
       sodipodi:nodetypes="ccccccccccc" />
    <path
       style="fill:#ffffff;fill-opacity:1;fill-rule:evenodd;stroke:#000000;stroke-width:0.630212;stroke-dasharray:none;stroke-opacity:1;paint-order:markers stroke fill"
       d="m 92.977551,180.97952 c 0.80739,1.0039 3.22956,1.0039 10.496069,0 3.38409,0.14645 7.50824,8.10848 5.65174,11.04296 -5.87173,-1.3797 -14.387743,-3.87543 -16.000396,-3.97828 z"
       id="path134"
       sodipodi:nodetypes="ccccc" />
    <path
       style="fill:#ffffff;fill-opacity:1;fill-rule:evenodd;stroke:#000000;stroke-width:0.630212;stroke-dasharray:none;stroke-opacity:1;paint-order:markers stroke fill"
       d="m 102.66623,180.97952 c -1.52058,3.24948 0,4.01562 0,9.03515 v 0"
       id="path135"
       sodipodi:nodetypes="ccc" />
    <path
       style="fill:#ffffff;fill-opacity:1;fill-rule:evenodd;stroke:#000000;stroke-width:0.630212;stroke-dasharray:none;stroke-opacity:1;paint-order:markers stroke fill"
       d="m 109.93274,190.01467 -16.766418,-2.97309 -0.04137,1.00259"
       id="path136"
       sodipodi:nodetypes="ccc" />
    <path
       style="fill:#ffffff;fill-rule:evenodd;stroke:#000000;stroke-width:0.642;stroke-dasharray:none;stroke-opacity:1;paint-order:markers stroke fill"
       d="m 79.981232,182.49536 c -0.759417,0.96298 -3.037669,0.96298 -9.872398,0 -3.183005,0.14048 -7.062088,7.77797 -5.315892,10.59286 5.522807,-1.32347 13.5328,-3.71748 15.049635,-3.81612 z"
       id="path137"
       sodipodi:nodetypes="ccccc" />
    <path
       style="fill:#ffffff;fill-rule:evenodd;stroke:#000000;stroke-width:0.642;stroke-dasharray:none;stroke-opacity:1;paint-order:markers stroke fill"
       d="m 70.868246,182.49536 c 1.430217,3.11703 0,3.85194 0,8.66688 v 0"
       id="path138"
       sodipodi:nodetypes="ccc" />
    <path
       style="fill:#ffffff;fill-rule:evenodd;stroke:#000000;stroke-width:0.642;stroke-dasharray:none;stroke-opacity:1;paint-order:markers stroke fill"
       d="m 64.033529,191.16224 15.770147,-2.85191 0.03892,0.96173"
       id="path139"
       sodipodi:nodetypes="ccc" />
    <path
       style="fill:#fc8b57;fill-opacity:1;fill-rule:nonzero;stroke:#000000;stroke-width:0.4;stroke-opacity:1;paint-order:markers stroke fill"
       d="m 82.200662,73.463004 c 1.144275,4.087778 1.144275,4.087778 1.144275,4.087778"
       id="path18" />
    <path
       style="fill:#ff7f2a;fill-opacity:1;fill-rule:nonzero;stroke:#000000;stroke-width:0;stroke-opacity:1;paint-order:markers stroke fill;stroke-dasharray:none"
       d="m 80.051776,58.602181 c 0.02666,-3.193587 0.07174,-6.037075 0.100171,-6.318864 0.06214,-0.61594 -0.03949,-0.600004 1.992082,-0.312383 0.776804,0.109977 1.6539,0.210042 1.949107,0.222369 0.634992,0.02652 30.878614,4.855705 30.878614,4.855705 -0.11832,0.06222 -29.4896,-2.106486 -30.122303,-2.185475 -0.147603,-0.01841 -0.26837,-0.01368 -0.26837,0.01053 0,0.333129 -0.566129,2.665979 -0.835064,3.441054 -0.71392,2.057525 -1.90817,4.12654 -3.151124,5.459267 l -0.591598,0.634328 z"
       id="path19"
       sodipodi:nodetypes="ssssssssscs" />
    <path
       style="fill:#ffccaa;fill-opacity:1;fill-rule:nonzero;stroke:#000000;stroke-width:0.662;stroke-dasharray:none;stroke-opacity:1;paint-order:markers stroke fill"
       d="m 74.000002,173.99999 c 1.447092,0.55427 3.333334,1.11058 5,0.26837 L 79.609646,174"
       id="path20"
       sodipodi:nodetypes="ccc" />
    <path
       style="fill:none;fill-opacity:1;fill-rule:nonzero;stroke:#000000;stroke-width:0.562;stroke-dasharray:none;stroke-opacity:1;paint-order:markers stroke fill"
       d="m 92.665428,174.04854 c 1.665579,0.77257 3.112766,0.89455 4.34156,0.36594 l 0.993013,-0.41449"
       id="path21"
       sodipodi:nodetypes="ccc" />
    <path
       style="fill:none;fill-opacity:1;fill-rule:nonzero;stroke:#000000;stroke-width:0.562;stroke-dasharray:none;stroke-opacity:1;paint-order:markers stroke fill"
       d="m 74.118242,174.03241 c 1.665578,0.77257 3.112761,0.89455 4.341561,0.36594 l 0.99301,-0.41449"
       id="path21-8"
       sodipodi:nodetypes="ccc" />
    <path
       style="fill:#ffccaa;fill-opacity:1;fill-rule:nonzero;stroke:#000000;stroke-width:0.262;stroke-dasharray:none;stroke-opacity:1;paint-order:markers stroke fill;stroke-linejoin:round;stroke-linecap:round"
       d="M 75.547449,182.7936 C 75.5266,178.99999 75.5266,178.99999 75.5266,178.99999"
       id="path22" />
    <path
       style="fill:#ffccaa;fill-opacity:1;fill-rule:nonzero;stroke:#000000;stroke-width:0.262;stroke-dasharray:none;stroke-opacity:1;paint-order:markers stroke fill"
       d="M 78.000002,178.99999 Z"
       id="path23" />
    <path
       style="fill:#ffccaa;fill-opacity:1;fill-rule:nonzero;stroke:#000000;stroke-width:0.262;stroke-dasharray:none;stroke-opacity:1;paint-order:markers stroke fill;stroke-linecap:round"
       d="m 78.000002,182.55425 0,-3.55426"
       id="path24"
       sodipodi:nodetypes="cc" />
    <path
       style="fill:none;fill-opacity:1;fill-rule:nonzero;stroke:#000000;stroke-width:0.262;stroke-dasharray:none;stroke-opacity:1;paint-order:markers stroke fill;stroke-linecap:round"
       d="m 95.000002,181.58817 0,-3.58818"
       id="path25"
       sodipodi:nodetypes="cc" />
    <path
       style="fill:none;fill-opacity:1;fill-rule:nonzero;stroke:#000000;stroke-width:0.262;stroke-dasharray:none;stroke-opacity:1;paint-order:markers stroke fill;stroke-linecap:round"
       d="m 97.000001,177.99999 0.19813,3.74089"
       id="path26" />
    <path
       style="fill:#ffffff;fill-opacity:1;fill-rule:nonzero;stroke:#000000;stroke-width:0.31642;stroke-linecap:round;stroke-linejoin:round;stroke-dasharray:none;stroke-opacity:1;paint-order:markers stroke fill"
       d="m 287.60655,691.05116 c -0.50206,-0.0221 -1.04487,-0.0704 -1.20624,-0.10735 l -0.29341,-0.0671 -0.0177,-4.26826 c -0.01,-2.34754 -0.0537,-5.67662 -0.0978,-7.39795 l -0.0801,-3.1297 h -0.45641 -0.45642 l -0.0337,7.3978 -0.0337,7.39779 -0.55314,-0.0688 c -0.30423,-0.0379 -1.36149,-0.14573 -2.34946,-0.23969 -0.98797,-0.094 -1.81795,-0.19382 -1.8444,-0.22191 -0.0414,-0.044 0.38695,-31.04486 0.42994,-31.11212 0.009,-0.0137 0.44132,0.12197 0.9613,0.30141 1.6184,0.55846 4.1407,1.21771 5.70519,1.49116 4.2896,0.74975 7.95375,0.36013 11.5184,-1.22478 1.46163,-0.64987 1.59065,-0.68538 1.63053,-0.44883 0.0238,0.14128 0.26474,6.80895 0.53537,14.81705 l 0.49207,14.56018 -0.40497,0.43491 c -0.84663,0.90924 -2.31162,1.47332 -4.64311,1.78779 -1.2617,0.17018 -5.97779,0.22294 -8.80228,0.0985 z m 7.60257,-0.7172 c 0.2257,-0.22571 0.2257,-13.93619 0,-14.1619 -0.23957,-0.23957 -0.73127,-0.1862 -0.88217,0.0958 -0.18583,0.34724 -0.18583,13.62316 0,13.9704 0.1509,0.28195 0.6426,0.33532 0.88217,0.0958 z"
       id="path27"
       transform="scale(0.26458333)" />
    <path
       style="fill:#ffffff;fill-opacity:1;fill-rule:nonzero;stroke:#000000;stroke-width:0.31642;stroke-linecap:round;stroke-linejoin:round;stroke-dasharray:none;stroke-opacity:1;paint-order:markers stroke fill"
       d="m 360.40472,685.5781 -0.74983,-0.056 v -6.39188 c 0,-4.1567 -0.0472,-6.48007 -0.13499,-6.6441 -0.1509,-0.28195 -0.64259,-0.33532 -0.88216,-0.0957 -0.11748,0.11748 -0.15649,1.759 -0.15649,6.58541 v 6.42893 h -0.40333 c -0.83263,0 -3.08357,-0.54706 -3.97457,-0.96596 -0.9507,-0.44696 -1.49633,-0.92318 -2.40041,-2.09503 l -0.52305,-0.67797 -0.41446,-11.17008 c -0.22794,-6.14354 -0.38757,-11.19695 -0.35471,-11.2298 0.0328,-0.0329 0.75827,0.20662 1.61203,0.53218 4.60305,1.75523 8.93293,2.18202 12.5875,1.24074 0.82481,-0.21244 2.42389,-0.76939 3.55352,-1.23768 l 2.05386,-0.85142 0.002,0.35009 c 0.001,0.19255 0.40766,6.04146 0.90369,12.99758 0.49603,6.95612 0.87921,12.67014 0.85153,12.69783 -0.0474,0.0474 -1.24088,0.16915 -3.21198,0.32764 l -0.86813,0.0698 -0.0748,-0.74379 c -0.0412,-0.40908 -0.19737,-3.23777 -0.34714,-6.28597 -0.14976,-3.0482 -0.32566,-5.67421 -0.39088,-5.83559 -0.13505,-0.33414 -0.65494,-0.40105 -0.89245,-0.11486 -0.11115,0.13393 -0.0633,1.768 0.19148,6.5378 0.28245,5.2881 0.31022,6.37791 0.16482,6.47007 -0.0962,0.061 -0.70299,0.11199 -1.34849,0.11341 -0.6455,10e-4 -1.81914,0.0246 -2.60808,0.0515 -0.78895,0.0269 -1.77187,0.0237 -2.18427,-0.007 z"
       id="path28"
       transform="scale(0.26458333)" />
    <path
       style="fill:#ff7f2a;fill-opacity:1;fill-rule:nonzero;stroke:#000000;stroke-width:0;stroke-linecap:round;stroke-linejoin:round;stroke-dasharray:none;stroke-opacity:1;paint-order:markers stroke fill"
       d="m 78.000002,51.999999 c 5.521296,-2.222363 5.527032,-2.186028 5.521296,-2.222363 -0.0057,-0.03634 -0.0057,-0.03634 -0.0057,-0.03634 l 0.484439,3.59088 -4.798883,2.334966 z"
       id="path31" />
  </g>
</svg>
